<svg xmlns="http://www.w3.org/2000/svg" viewBox="0 0 512 320" role="img" aria-label="Mercado Pago">
  <ellipse cx="256" cy="160" rx="248" ry="152" fill="#37aee2" stroke="#14008f" stroke-width="10"/>
  <path
    d="M72 73c48-32 111-50 184-50s136 18 184 50c-21 11-40 18-59 21-29 5-57 3-88-7-25-8-51-12-77-12s-52 4-77 12c-31 10-59 12-88 7-19-3-38-10-59-21Z"
    fill="#58c7f3"
  />
  <path
    d="M39 146c48 8 94 23 127 42 5-8 14-14 25-14 15 0 28 10 31 24 6-8 16-13 28-13 18 0 33 13 33 30v4c5-5 13-8 22-8 18 0 33 15 33 33v6c5-2 10-3 16-3 18 0 33 15 33 33 0 9-4 18-11 24l18 8c22 10 44 13 66 5 11-4 20-9 26-16l35-9c-13 21-32 35-57 42-32 9-64 3-93-11l-31-15-15 7c-22 10-47 10-69 0l-38-17-12 3c-24 6-50 3-72-7l-31-14-11 1c-21 2-40-10-47-29-4-11-4-23 1-34-33-19-79-34-128-43Z"
    fill="#fff"
  />
  <path
    d="M205 95c14-14 31-21 52-21 17 0 34 4 50 10 34 12 64 16 97 12 24-3 48-12 69-24"
    fill="none"
    stroke="#14008f"
    stroke-linecap="round"
    stroke-linejoin="round"
    stroke-width="13"
  />
  <path
    d="M39 146c48 8 94 23 127 42"
    fill="none"
    stroke="#14008f"
    stroke-linecap="round"
    stroke-linejoin="round"
    stroke-width="13"
  />
  <path
    d="M166 188c0-12-10-22-22-22s-22 10-22 22 10 22 22 22"
    fill="none"
    stroke="#14008f"
    stroke-linecap="round"
    stroke-linejoin="round"
    stroke-width="13"
  />
  <path
    d="M183 187c0-13 11-24 24-24s24 11 24 24"
    fill="none"
    stroke="#14008f"
    stroke-linecap="round"
    stroke-linejoin="round"
    stroke-width="13"
  />
  <path
    d="M227 192c0-13 11-24 24-24s24 11 24 24"
    fill="none"
    stroke="#14008f"
    stroke-linecap="round"
    stroke-linejoin="round"
    stroke-width="13"
  />
  <path
    d="M272 205c0-13 11-24 24-24s24 11 24 24"
    fill="none"
    stroke="#14008f"
    stroke-linecap="round"
    stroke-linejoin="round"
    stroke-width="13"
  />
  <path
    d="M316 221c0-13 11-24 24-24s24 11 24 24"
    fill="none"
    stroke="#14008f"
    stroke-linecap="round"
    stroke-linejoin="round"
    stroke-width="13"
  />
  <path
    d="M205 95 174 127c-7 8-6 20 3 27 13 10 31 13 48 8 9-3 19-9 29-17 23-18 47-18 70 0l87 70c9 8 11 22 3 32-8 10-22 11-32 3l-11-10"
    fill="none"
    stroke="#14008f"
    stroke-linecap="round"
    stroke-linejoin="round"
    stroke-width="13"
  />
  <path
    d="m332 226 30 26c9 8 9 22 1 31s-22 9-31 1l-33-29"
    fill="none"
    stroke="#14008f"
    stroke-linecap="round"
    stroke-linejoin="round"
    stroke-width="13"
  />
  <path
    d="m302 239 22 21c9 8 9 22 1 31s-22 9-31 1l-21-21"
    fill="none"
    stroke="#14008f"
    stroke-linecap="round"
    stroke-linejoin="round"
    stroke-width="13"
  />
  <path
    d="m278 255 15 16c9 8 9 21 1 30s-21 9-30 1l-16-15"
    fill="none"
    stroke="#14008f"
    stroke-linecap="round"
    stroke-linejoin="round"
    stroke-width="13"
  />
</svg>
