<?xml version="1.0" encoding="utf-8"?>
<!-- Generator: Adobe Illustrator 28.0.0, SVG Export Plug-In . SVG Version: 6.00 Build 0)  -->
<svg version="1.1" id="Слой_1" xmlns="http://www.w3.org/2000/svg" xmlns:xlink="http://www.w3.org/1999/xlink" x="0px" y="0px"
	 viewBox="0 0 1000 539.6016846" enable-background="new 0 0 1000 539.6016846" xml:space="preserve">
<path fill="#EC0000" d="M575.1438599,151.1036224c-0.5151367-11.8864899-3.8431396-23.6799393-9.9995728-34.341011
	l-54.2863464-94.0238724C506.716156,15.5678301,503.8584595,7.8817449,502.2704468,0l-2.2695618,3.9311492
	c-13.4353027,23.2730618-13.4353027,51.9480133,0,75.2210693l43.4287415,75.2210846
	c13.4359131,23.2778473,13.4359131,51.9477081,0,75.2207642l-2.2695312,3.9311523
	c-1.5880127-7.8769531-4.4457397-15.5627441-8.5875244-22.7339478l-39.7572327-68.8684082L467.424408,97.9550247
	c-4.1322021-7.1712036-6.9946899-14.8522034-8.5874939-22.7291641l-2.26474,3.9263611
	c-13.3916321,23.1946793-13.4353333,51.7517548-0.1322327,74.9856262h-0.0047913l43.5657349,75.461319
	c13.4353333,23.273056,13.4353333,51.9429169,0,75.2159882l-2.2695312,3.9311523
	c-1.5880127-7.8769531-4.4457092-15.5627441-8.5874939-22.7339478l-54.2863464-94.0286713
	c-7.2789307-12.6072083-10.6069336-26.8024292-9.9989929-40.8701935
	c-58.1193848,15.1854858-98.224884,47.4235992-98.224884,84.7500763c0,51.9330597,77.6183472,94.0286713,173.3672485,94.0286713
	c95.7495422,0,173.3672791-42.0956116,173.3672791-94.0286713
	C673.3681641,198.5370941,633.2578735,166.2891083,575.1438599,151.1036224"/>
<path fill="#EC0000" d="M0,531.1853027c0.4463679-9.0778198,1.7747015-15.2734375,4.210578-22.361145
	c12.3965826,5.7593994,28.3413696,8.6317749,40.5171623,8.6317749c20.5921593,0,32.1061821-6.6416931,32.1061821-19.704834
	c0-12.8423462-8.4115829-18.8174438-29.2287216-27.8952942l-11.2932281-4.872345
	c-20.8129539-9.0826416-34.9788513-20.8174438-34.9788513-44.2864685c0-25.2437134,17.4897251-41.4093018,53.3601151-41.4093018
	c14.3908768,0,27.8997879,1.9949036,40.5219498,6.4259644c-0.6665573,8.8525696-2.215683,15.7198181-4.4265823,22.1409912
	c-11.9597855-4.4310608-26.1304779-6.4211731-36.3161583-6.4211731c-19.2638283,0-28.1211815,7.528717-28.1211815,19.2635193
	c0,11.5140076,8.6371613,18.1557007,24.1361809,24.7973633l11.9597855,5.0928345
	c28.1211815,11.960083,39.850605,24.5819397,39.850605,46.0560913c0,25.4642029-19.2584381,42.9584045-56.9035339,42.9584045
	C27.238615,539.6016846,12.4061565,536.9450073,0,531.1853027 M221.2124023,425.3437805v110.7138977h-22.3662567
	l-1.3283386-13.2833252c-6.1958923,9.739624-15.7198029,15.9400024-31.2188263,15.9400024
	c-29.2287292,0-48.7127457-21.2584229-48.7127457-58.4523621c0-38.9731445,20.812355-61.1141357,61.7758865-61.1141357
	C195.302124,419.1478577,208.3652649,420.9174805,221.2124023,425.3437805 M196.8512573,510.8142395v-69.5253906
	c-5.0931549-0.8873596-10.6266785-1.3283386-17.4891357-1.3283386c-25.2437134,0-36.9785309,15.5038147-36.9785309,40.3014832
	c0,22.5819702,9.0781403,38.5270691,30.7778473,38.5270691
	C182.6853485,518.7890625,190.4351654,515.6914062,196.8512573,510.8142395 M345.8765259,461.6602173v74.3974609h-24.3563843
	v-70.1919556c0-17.4891357-5.7590942-25.9052124-30.1154785-25.9052124c-5.7549133,0-12.6221619,0.6617737-19.2590332,1.7693176
	v94.3278503h-24.3611603V425.3437805c15.4990082-3.7645264,32.5519562-6.1959229,44.2867584-6.1959229
	C332.8139648,419.1478577,345.8765259,434.8676758,345.8765259,461.6602173 M413.4169006,517.9019775
	c7.0826416,0,13.7296753-1.3283081,19.0430298-3.3184204c-0.6617737,6.6416626-1.5491333,14.1706543-2.8774719,20.5870361
	c-6.6464539,2.661499-13.7297058,3.5437622-20.5915527,3.5437622c-23.6898193,0-38.7526245-10.8474731-38.7526245-37.8652954
	V384.6010132c7.533783-2.431366,16.8321228-3.5389099,24.3563538-3.5389099v41.8454895h38.5318604
	c-0.440979,7.5338135-1.1075439,14.3962708-2.2156982,20.8123474H394.594635v54.2516479
	C394.594635,512.3678589,401.6868591,517.9019775,413.4169006,517.9019775 M544.0609131,425.3437805v110.7138977h-22.3615112
	l-1.3283081-13.2833252c-6.1953125,9.739624-15.7246094,15.9400024-31.2188416,15.9400024
	c-29.2335205,0-48.7127686-21.2584229-48.7127686-58.4523621c0-38.9731445,20.8129578-61.1141357,61.7759094-61.1141357
	C518.1560059,419.1478577,531.2185059,420.9174805,544.0609131,425.3437805 M519.7092896,510.8142395v-69.5253906
	c-5.0925293-0.8873596-10.6314392-1.3283386-17.4938965-1.3283386c-25.2437439,0-36.9779358,15.5038147-36.9779358,40.3014832
	c0,22.5819702,9.0775452,38.5270691,30.7772522,38.5270691
	C505.5338135,518.7890625,513.2883911,515.6914062,519.7092896,510.8142395 M668.7303467,461.6602173v74.3974609h-24.3563232
	v-70.1919556c0-17.4891357-5.7597046-25.9052124-30.1113281-25.9052124c-5.7597046,0-12.6269531,0.6617737-19.2631836,1.7693176
	v94.3278503h-24.3618164V425.3437805c15.4990234-3.7645264,32.552002-6.1959229,44.2868042-6.1959229
	C655.6672363,419.1478577,668.7303467,434.8676758,668.7303467,461.6602173 M792.291687,381.0621033v154.995575h-22.3668213
	l-1.322937-14.1707153c-6.2055054,10.406189-15.7246094,16.8273926-31.6652222,16.8273926
	c-29.2286987,0-48.7127686-21.2584229-48.7127686-58.4523621c0-38.9731445,20.8123779-61.1141357,61.7759399-61.1141357
	c6.4208374,0,12.3965454,0.6617737,18.1556396,1.7696228v-36.5321655
	C775.6845703,381.723877,784.321106,381.0621033,792.291687,381.0621033 M768.1555176,510.3729553v-68.197052
	c-6.4160767-1.3283386-13.0631104-2.2153931-19.4840088-2.2153931c-24.1361694,0-35.6502075,15.0577393-35.6502075,40.3014832
	c0,22.5819702,9.0829468,38.5270691,30.7778931,38.5270691
	C753.5438843,518.7890625,761.5186768,515.4658203,768.1555176,510.3729553 M914.7401123,488.6732788H837.024231
	c3.102478,19.7048035,14.6116943,29.2286987,36.3114014,29.2286987c13.2886963,0,26.7976074-2.8822632,38.9733887-8.4163513
	c-0.8825684,6.426239-2.2156372,14.8375549-3.7647705,22.1457825c-11.067688,5.0928345-22.807251,7.0829468-35.8704224,7.0829468
	c-40.7427368,0-60.4475098-22.586792-60.4475098-60.4472656c0-32.9932251,15.2788086-59.1192322,54.0266724-59.1192322
	c34.7670288,0,49.8202515,22.8027649,49.8202515,50.7079468
	C916.0732422,476.7179565,915.6322632,482.2520752,914.7401123,488.6732788 M836.5826416,468.3018799h54.9134521
	c0-18.1556702-9.7440796-28.7826538-26.5714722-28.7826538
	C847.6557007,439.5192261,838.5727539,449.4796448,836.5826416,468.3018799 M1000,420.0301208
	c0,7.3085327-0.8873291,16.1658936-2.2156982,20.8174438c-5.7548828-0.6665649-11.5139771-0.8870544-18.3764648-0.8870544
	c-5.9799194,0-11.9603882,0.440979-17.9354858,1.3283386v94.7688293h-24.3563843V425.3437805
	c10.4064941-3.5389404,27.8956299-6.1959229,41.6253052-6.1959229
	C986.2703247,419.1478577,994.6860962,419.3686523,1000,420.0301208"/>
</svg>
